<svg xmlns="http://www.w3.org/2000/svg" xmlns:xlink="http://www.w3.org/1999/xlink" viewBox="0 0 178 178"><defs><style>.a{fill:#4dd36d;}.b{fill:none;}.c{fill:#fff;}.d{filter:url(#a);}</style><filter id="a" x="0" y="0" width="178" height="178" filterUnits="userSpaceOnUse"><feOffset dy="10" input="SourceAlpha"/><feGaussianBlur stdDeviation="12" result="b"/><feFlood flood-color="#5ce77d" flood-opacity="0.561"/><feComposite operator="in" in2="b"/><feComposite in="SourceGraphic"/></filter></defs><g transform="translate(-1509 -563)"><g class="d" transform="matrix(1, 0, 0, 1, 1509, 563)"><path class="a" d="M53,0A53,53,0,1,1,0,53,53,53,0,0,1,53,0Z" transform="translate(36 26)"/></g><g transform="translate(1567.848 611.848)"><path class="b" d="M0,0H60.152V60.152H0Z"/><path class="c" d="M6.506,25.943h28L22.271,38.174a2.526,2.526,0,0,0,0,3.559,2.5,2.5,0,0,0,3.534,0L42.322,25.216a2.5,2.5,0,0,0,0-3.534L25.83,5.141A2.5,2.5,0,1,0,22.3,8.675L34.5,20.93h-28a2.506,2.506,0,0,0,0,5.013Z" transform="translate(6.025 6.639)"/></g></g></svg>