<svg xmlns="http://www.w3.org/2000/svg" viewBox="0 0 50 50"><defs><style>.a{fill:#006867;}.b{fill:none;}.c{fill:#fff;}</style></defs><g transform="translate(-10444 32)"><circle class="a" cx="25" cy="25" r="25" transform="translate(10444 -32)"/><g transform="translate(10451.89 -24.23)"><path class="b" d="M0,0H34.341V34.341H0Z"/><g transform="translate(5.448 8.596)"><path class="c" d="M11.237,20.592,6.229,15.584a1.408,1.408,0,0,0-2,0h0a1.408,1.408,0,0,0,0,2l6,6a1.425,1.425,0,0,0,2.018,0L27.406,8.429a1.408,1.408,0,0,0,0-2h0a1.408,1.408,0,0,0-2,0Z" transform="translate(-3.808 -6.007)"/></g></g></g></svg>